Daybreakers (2009) R5 DVDRip XviD-MAX 

Format                           : AVI
Format/Info                      : Audio Video Interleave
Format profile                   : OpenDML
File size                        : 900 MiB
Duration                         : 1h 33mn
Overall bit rate                 : 1 343 Kbps
Writing application              : VirtualDubMod 1.5.10.2 (build 2542/release)
Writing library                  : VirtualDubMod build 2542/release
Original source form             : MAX TORRENTZ
Copyright                        : SIGISMUNT

Video
Format                           : xvid
Codec ID                         : xvid
Duration                         : 1h 33mn
Bit rate                         : 1 147 Kbps
Width                            : 720 pixels
Height                           : 320 pixels
Display aspect ratio             : 2.25:1
Frame rate                       : 25.000 fps
Resolution                       : 24 bits
Bits/(Pixel*Frame)               : 0.199
Stream size                      : 769 MiB (85%)

Audio
ID                               : 1
Format                           : MPEG Audio
Format version                   : Version 1
Format profile                   : Layer 3
Codec ID                         : 55
Codec ID/Hint                    : MP3
Duration                         : 1h 33mn
Bit rate mode                    : Constant
Bit rate                         : 192 Kbps
Channel(s)                       : 2 channels
Sampling rate                    : 48.0 KHz
Resolution                       : 16 bits
Stream size                      : 129 MiB (14%)
Alignment                        : Aligned on interleaves
Interleave, duration             : 640 ms (16.01 video frames)
Interleave, preload duration     : 216 ms
Writing library                  : LAME3.96.1 
http://www.imdb.com/title/tt0433362/

Screens: 
http://www.postimg.com/image/12000/11189.jpg 
http://www.postimg.com/image/12000/11190.jpg  
http://www.postimg.com/image/12000/11191.jpg  
http://www.postimg.com/image/12000/11192.jpg 

ScreenCaps: 
http://www.postimg.com/image/12000/11193.jpg

Daybreakers (2009) R5 DVDRip XviD-MAX Torrent Free Download 
http://thepiratebay.org/user/extremezone/0/7